<?xml version="1.0" encoding="UTF-8"?>
<svg id="_Слой_2" data-name="Слой 2" xmlns="http://www.w3.org/2000/svg" xmlns:xlink="http://www.w3.org/1999/xlink" viewBox="0 0 638.18 690.52">
  <defs>
    <style>
      .cls-1 {
        fill: url(#linear-gradient);
      }

      .cls-1, .cls-2, .cls-3, .cls-4, .cls-5, .cls-6, .cls-7, .cls-8, .cls-9, .cls-10, .cls-11, .cls-12 {
        stroke-width: 0px;
      }

      .cls-2 {
        fill: url(#linear-gradient-11);
      }

      .cls-3 {
        fill: url(#linear-gradient-12);
      }

      .cls-4 {
        fill: url(#linear-gradient-10);
      }

      .cls-5 {
        fill: url(#linear-gradient-4);
      }

      .cls-6 {
        fill: url(#linear-gradient-2);
      }

      .cls-7 {
        fill: url(#linear-gradient-3);
      }

      .cls-8 {
        fill: url(#linear-gradient-8);
      }

      .cls-9 {
        fill: url(#linear-gradient-9);
      }

      .cls-10 {
        fill: url(#linear-gradient-7);
      }

      .cls-11 {
        fill: url(#linear-gradient-5);
      }

      .cls-12 {
        fill: url(#linear-gradient-6);
      }
    </style>
    <linearGradient id="linear-gradient" x1="3.05" y1="388.67" x2="660.24" y2="143.13" gradientUnits="userSpaceOnUse">
      <stop offset="0" stop-color="#eec65f"/>
      <stop offset=".23" stop-color="#a76f2a"/>
      <stop offset=".33" stop-color="#e2b755"/>
      <stop offset=".46" stop-color="#f9f2b7"/>
      <stop offset=".58" stop-color="#e2b755"/>
      <stop offset=".69" stop-color="#8f5d21"/>
      <stop offset="1" stop-color="#e2b755"/>
    </linearGradient>
    <linearGradient id="linear-gradient-2" x1="21.68" y1="438.53" x2="678.87" y2="192.98" xlink:href="#linear-gradient"/>
    <linearGradient id="linear-gradient-3" x1="2.27" y1="386.59" x2="659.47" y2="141.04" xlink:href="#linear-gradient"/>
    <linearGradient id="linear-gradient-4" x1="5.79" y1="396.03" x2="662.99" y2="150.48" xlink:href="#linear-gradient"/>
    <linearGradient id="linear-gradient-5" x1="-7.53" y1="360.37" x2="649.67" y2="114.83" xlink:href="#linear-gradient"/>
    <linearGradient id="linear-gradient-6" x1="-53.95" y1="653.35" x2="839.43" y2="653.35" xlink:href="#linear-gradient"/>
    <linearGradient id="linear-gradient-7" x1="-53.95" y1="653.35" x2="839.43" y2="653.35" xlink:href="#linear-gradient"/>
    <linearGradient id="linear-gradient-8" x1="-53.95" y1="653.35" x2="839.43" y2="653.35" xlink:href="#linear-gradient"/>
    <linearGradient id="linear-gradient-9" x1="-53.95" y1="653.35" x2="839.43" y2="653.35" xlink:href="#linear-gradient"/>
    <linearGradient id="linear-gradient-10" x1="-53.95" y1="653.35" x2="839.43" y2="653.35" xlink:href="#linear-gradient"/>
    <linearGradient id="linear-gradient-11" x1="-53.95" y1="653.28" x2="839.43" y2="653.28" xlink:href="#linear-gradient"/>
    <linearGradient id="linear-gradient-12" x1="-53.95" y1="653.35" x2="839.43" y2="653.35" xlink:href="#linear-gradient"/>
  </defs>
  <g id="Layer_1" data-name="Layer 1">
    <g>
      <path class="cls-1" d="M33.03,121.39s209.65,195.6,430.33,142.44c0,0-8.02,265.82-307.95,313.97,0,0,198.61-72.22,220.68-260.81,0,0-253.78,3.01-343.06-195.6Z"/>
      <g>
        <path class="cls-6" d="M189.68,459.3c-12.09-8.19-23.49-17.58-34.05-28.13-20.42-20.42-36.52-43.99-47.86-69.63-19.72-12.88-37.56-27.11-53.3-42.53,9.93,52.5,35.32,100.79,73.92,139.39,12.27,12.27,25.53,23.19,39.58,32.73,6.64-8.48,14.28-19.21,21.7-31.83Z"/>
        <path class="cls-7" d="M508.15,78.65C457.43,27.93,390,0,318.27,0s-139.16,27.93-189.88,78.65c-14.55,14.55-27.21,30.48-37.89,47.48,9.01,6.79,19.58,14.39,31.48,22.36,9.39-15.29,20.63-29.59,33.64-42.6,43.44-43.44,101.2-67.37,162.64-67.37s119.2,23.93,162.64,67.37c43.44,43.44,67.37,101.2,67.37,162.64s-23.92,119.2-67.37,162.64c-21.31,21.31-46.08,37.91-73.02,49.31-17.3,20.19-36.79,38.35-58.39,54.29-.26.19-.52.38-.78.57,60.21-6.75,115.96-33.46,159.43-76.93,50.72-50.72,78.65-118.15,78.65-189.88s-27.93-139.16-78.65-189.88Z"/>
      </g>
      <path class="cls-5" d="M12.97,190.61s100.31,154.48,315.98,158.99c0,0-28.09,129.66-157.99,187.46,0,0,63.87-59.36,80.75-149.08,0,0-191.59-38.88-238.74-197.37Z"/>
      <path class="cls-11" d="M286.69,229.73s46.54-69.01,151.51-65.16c23.11.85,47.19,4.13,73.83,20.54,0,0-40.13-4.16-44.56,44.2-65.86,25.45-180.78.41-180.78.41Z"/>
      <g>
        <path class="cls-12" d="M15.09,689.53H0v-72.35h41.47v12.57H15.09v18.66h24.55v12.52H15.09v28.61Z"/>
        <path class="cls-10" d="M99.15,661.77v27.76h-15.34v-72.35h21.08c9.83,0,17.11,1.79,21.83,5.37,4.72,3.58,7.08,9.02,7.08,16.31,0,4.26-1.17,8.04-3.51,11.36-2.34,3.31-5.66,5.91-9.95,7.79,10.89,16.27,17.98,26.77,21.28,31.53h-17.02l-17.27-27.76h-8.17ZM99.15,649.29h4.95c4.85,0,8.43-.81,10.74-2.43,2.31-1.62,3.46-4.16,3.46-7.62s-1.18-5.87-3.54-7.33c-2.36-1.45-6.01-2.18-10.96-2.18h-4.65v19.55Z"/>
        <path class="cls-8" d="M220.56,689.53h-41.67v-72.35h41.67v12.57h-26.33v15.89h24.5v12.57h-24.5v18.66h26.33v12.67Z"/>
        <path class="cls-9" d="M305.51,689.53h-41.67v-72.35h41.67v12.57h-26.33v15.89h24.5v12.57h-24.5v18.66h26.33v12.67Z"/>
        <path class="cls-4" d="M408.81,652.66c0,11.91-3.39,21.03-10.17,27.37-6.78,6.33-16.57,9.5-29.37,9.5h-20.49v-72.35h22.72c11.81,0,20.98,3.12,27.52,9.35,6.53,6.24,9.8,14.95,9.8,26.13ZM392.87,653.06c0-15.54-6.86-23.31-20.59-23.31h-8.17v47.11h6.58c14.78,0,22.17-7.93,22.17-23.8Z"/>
        <path class="cls-2" d="M517.65,653.25c0,11.98-2.97,21.18-8.91,27.62-5.94,6.43-14.45,9.65-25.54,9.65s-19.6-3.22-25.54-9.65c-5.94-6.43-8.91-15.67-8.91-27.71s2.98-21.24,8.93-27.59c5.95-6.35,14.49-9.53,25.61-9.53s19.62,3.2,25.51,9.6c5.89,6.4,8.83,15.61,8.83,27.62ZM464.85,653.25c0,8.08,1.54,14.17,4.6,18.26,3.07,4.09,7.65,6.14,13.76,6.14,12.24,0,18.36-8.13,18.36-24.4s-6.09-24.45-18.26-24.45c-6.1,0-10.71,2.05-13.81,6.16-3.1,4.11-4.65,10.2-4.65,18.29Z"/>
        <path class="cls-3" d="M591.46,689.53l-17.42-56.77h-.45c.63,11.55.94,19.25.94,23.11v33.65h-13.71v-72.35h20.88l17.12,55.33h.3l18.16-55.33h20.88v72.35h-14.3v-34.25c0-1.62.02-3.48.07-5.59.05-2.11.27-7.72.67-16.83h-.45l-18.66,56.67h-14.06Z"/>
      </g>
    </g>
  </g>
</svg>